<?xml version="1.0" standalone="no"?>
<!DOCTYPE svg PUBLIC "-//W3C//DTD SVG 20010904//EN"
 "http://www.w3.org/TR/2001/REC-SVG-20010904/DTD/svg10.dtd">
<svg version="1.0" xmlns="http://www.w3.org/2000/svg"
 width="16.000000pt" height="16.000000pt" viewBox="0 0 16.000000 16.000000"
 preserveAspectRatio="xMidYMid meet">
<metadata>
Created by potrace 1.11, written by Peter Selinger 2001-2013
</metadata>
<g transform="translate(0.000000,16.000000) scale(0.006154,-0.006154)"
fill="#000000" stroke="none">
<path d="M1169 2596 c-2 -2 -24 -6 -49 -9 -126 -16 -256 -55 -380 -115 -387
-185 -652 -541 -724 -972 -14 -83 -15 -343 -2 -400 4 -14 9 -38 12 -55 9 -54
25 -120 34 -140 4 -11 23 -57 40 -103 69 -177 203 -359 370 -503 44 -38 147
-109 158 -109 6 0 12 -4 14 -8 5 -13 169 -90 248 -116 144 -47 233 -61 410
-60 134 0 184 4 268 23 282 62 520 201 707 414 134 151 231 335 285 536 27
101 38 211 35 346 -3 151 -5 164 -30 270 -21 87 -20 86 -29 110 -5 11 -13 34
-18 50 -48 137 -165 323 -279 442 -197 206 -468 348 -744 390 -38 5 -321 13
-326 9z"/>
</g>
</svg>
